<?xml version="1.0" standalone="no"?>
<!DOCTYPE svg PUBLIC "-//W3C//DTD SVG 20010904//EN"
 "http://www.w3.org/TR/2001/REC-SVG-20010904/DTD/svg10.dtd">
<svg version="1.0" xmlns="http://www.w3.org/2000/svg"
 width="1024.000000pt" height="1024.000000pt" viewBox="0 0 1024.000000 1024.000000"
 preserveAspectRatio="xMidYMid meet">

<g transform="translate(0.000000,1024.000000) scale(0.100000,-0.100000)"
fill="#000000" stroke="none">
<path d="M4975 9060 c-3 -5 -23 -10 -43 -10 -20 0 -53 -6 -72 -13 -51 -18
-249 -116 -295 -147 -22 -14 -53 -32 -70 -40 -16 -8 -32 -17 -35 -20 -3 -3
-39 -26 -80 -50 -116 -69 -133 -78 -170 -97 -19 -9 -37 -19 -40 -22 -3 -4 -18
-13 -35 -21 -16 -8 -41 -22 -55 -31 -22 -14 -72 -43 -145 -83 -11 -6 -22 -13
-25 -16 -3 -3 -25 -16 -50 -29 -25 -14 -47 -27 -50 -30 -5 -6 -24 -17 -75 -45
-11 -6 -22 -13 -25 -16 -3 -3 -18 -12 -35 -20 -16 -8 -70 -38 -118 -67 -48
-29 -92 -53 -97 -53 -6 0 -10 -3 -10 -7 0 -5 -10 -13 -23 -19 -42 -21 -112
-59 -117 -64 -3 -3 -16 -11 -29 -18 -71 -40 -99 -57 -126 -73 -16 -11 -37 -22
-45 -26 -8 -3 -34 -19 -57 -35 -23 -15 -46 -28 -52 -28 -6 0 -11 -3 -11 -7 0
-5 -10 -13 -23 -19 -60 -30 -153 -79 -157 -84 -3 -3 -21 -14 -40 -24 -19 -11
-53 -31 -75 -45 -22 -14 -49 -30 -60 -36 -45 -25 -70 -40 -75 -45 -3 -3 -36
-21 -75 -40 -38 -19 -74 -38 -80 -42 -49 -38 -156 -101 -281 -168 -97 -52
-240 -154 -311 -223 -62 -60 -183 -219 -183 -241 0 -4 -9 -26 -19 -49 -11 -23
-26 -85 -35 -137 -15 -85 -16 -266 -14 -1745 3 -1843 -3 -1684 74 -1842 96
-198 247 -343 469 -453 17 -8 49 -27 72 -42 23 -15 46 -28 52 -28 6 0 11 -3
11 -7 0 -5 10 -13 23 -19 46 -23 163 -87 187 -103 14 -9 37 -23 52 -31 16 -7
28 -17 28 -22 0 -4 6 -8 13 -8 6 0 23 -9 37 -20 14 -11 32 -20 41 -20 8 0 24
-8 35 -18 10 -9 33 -24 49 -32 17 -8 67 -39 112 -67 46 -29 85 -53 87 -53 3 0
29 -14 58 -31 29 -18 78 -45 108 -62 30 -17 67 -38 82 -49 14 -10 29 -18 32
-18 3 0 30 -15 59 -34 29 -19 70 -44 90 -55 20 -12 52 -30 71 -40 18 -11 44
-25 57 -33 13 -7 26 -15 29 -18 3 -3 19 -12 35 -20 17 -8 48 -27 70 -41 22
-15 60 -37 85 -51 98 -54 125 -71 130 -77 3 -3 25 -17 50 -30 72 -39 83 -46
94 -54 26 -19 159 -97 166 -97 4 0 13 -7 20 -15 7 -8 37 -27 69 -42 31 -15 58
-30 61 -33 3 -3 16 -12 30 -20 14 -8 64 -38 113 -67 48 -30 102 -62 121 -72
18 -11 44 -25 57 -33 13 -7 26 -16 29 -19 10 -11 179 -89 193 -89 9 0 19 -5
22 -10 3 -6 21 -10 39 -10 17 0 36 -4 41 -9 31 -31 322 -35 390 -6 17 7 44 16
60 19 87 16 102 20 127 37 14 11 30 19 35 19 13 0 98 43 117 59 8 7 46 29 83
48 37 19 75 41 83 48 8 7 42 27 75 44 32 18 71 41 86 52 15 10 32 19 38 19 6
0 11 4 11 8 0 8 33 28 128 77 24 13 51 29 60 38 9 8 50 32 90 53 40 21 81 46
92 56 10 10 23 18 28 18 14 0 62 25 62 33 0 4 6 7 14 7 7 0 19 6 25 14 7 8 30
24 51 35 22 11 59 33 82 48 24 15 56 34 73 41 16 7 39 21 50 31 11 10 35 24
53 32 17 8 32 17 32 21 0 5 5 8 10 8 6 0 29 12 53 27 23 15 60 37 82 48 22 12
75 42 117 68 43 26 82 47 88 47 5 0 10 4 10 9 0 5 17 16 38 26 20 9 64 34 97
54 33 21 85 52 115 71 52 31 71 42 155 90 19 11 52 30 72 42 21 12 50 27 64
35 15 7 32 20 39 28 7 8 18 15 25 15 7 0 36 16 64 35 28 19 54 35 58 35 5 0
19 9 33 20 14 11 31 20 37 20 7 0 22 8 33 18 22 19 103 67 135 81 12 5 27 16
34 25 7 9 18 16 23 16 36 0 216 163 284 256 69 95 132 253 146 369 14 109 20
3208 7 3290 -20 120 -32 162 -76 250 -49 100 -73 136 -136 204 -49 52 -150
141 -161 141 -4 0 -27 14 -51 30 -24 17 -47 30 -50 30 -4 0 -20 9 -35 20 -16
11 -52 33 -82 48 -29 16 -110 63 -181 105 -70 42 -132 77 -136 77 -5 0 -11 3
-13 8 -1 4 -21 16 -43 28 -22 12 -89 51 -149 88 -60 36 -112 66 -117 66 -5 0
-9 5 -9 10 0 6 -9 10 -19 10 -11 0 -21 3 -23 8 -1 4 -24 18 -50 31 -27 13 -48
28 -48 33 0 4 -9 8 -20 8 -11 0 -20 5 -20 10 0 6 -5 10 -11 10 -6 0 -30 13
-53 28 -22 15 -57 35 -76 45 -38 19 -72 39 -80 47 -3 3 -26 16 -52 29 -27 13
-48 28 -48 33 0 4 -9 8 -20 8 -11 0 -20 4 -20 9 0 5 -8 11 -17 15 -19 6 -44
20 -131 74 -29 17 -54 32 -56 32 -2 0 -34 18 -70 40 -36 22 -70 40 -76 40 -5
0 -10 3 -10 8 0 4 -10 12 -23 18 -49 24 -112 59 -117 65 -3 3 -9 8 -15 10 -20
8 -180 101 -227 132 -14 9 -50 30 -80 46 -119 63 -175 95 -203 115 -16 12 -50
32 -75 45 -25 14 -47 27 -50 30 -3 4 -27 17 -55 31 -27 14 -52 27 -55 30 -19
20 -197 104 -271 128 -19 7 -49 12 -67 12 -17 0 -34 5 -37 10 -4 6 -63 10
-145 10 -82 0 -141 -4 -145 -10z m196 -685 c39 -20 94 -59 124 -88 89 -87 86
-57 77 -809 -7 -627 -8 -647 -27 -674 -16 -21 -49 -36 -150 -69 -305 -99 -553
-251 -775 -474 -320 -321 -519 -733 -570 -1176 -5 -49 -10 -113 -10 -142 0
-40 -4 -55 -18 -62 -14 -7 -1129 -17 -1314 -12 l-28 1 0 173 c0 96 5 223 11
283 48 497 218 1004 487 1449 299 496 775 956 1328 1286 236 140 688 347 762
348 18 1 63 -14 103 -34z m852 -2230 c4 -10 -86 -102 -275 -282 -337 -322
-355 -337 -443 -388 -38 -22 -102 -71 -141 -108 -40 -37 -75 -64 -77 -60 -3 5
-9 128 -13 273 -8 328 -11 317 108 387 222 131 437 190 699 192 112 1 138 -2
142 -14z m391 -81 c162 -65 310 -148 431 -244 134 -104 361 -368 338 -391 -6
-6 -182 -9 -479 -7 l-469 3 -66 38 c-109 62 -211 92 -381 112 -30 4 -48 11
-48 19 0 7 24 35 53 61 28 27 145 138 259 247 180 172 211 198 239 198 17 0
73 -16 123 -36z m-1524 -925 c0 -493 -2 -570 -15 -567 -7 2 -84 72 -171 157
l-156 155 7 75 c21 229 87 428 198 596 52 80 114 155 128 155 5 0 9 -229 9
-571z m2275 94 l137 -6 19 -31 c33 -53 78 -193 106 -324 25 -118 27 -144 27
-372 1 -215 -2 -257 -21 -344 -12 -55 -29 -106 -38 -115 -14 -14 -49 18 -375
344 -224 223 -363 370 -366 385 -38 171 -94 313 -163 413 -16 24 -27 47 -24
51 8 8 523 8 698 -1z m-1340 -280 c36 -12 67 -33 112 -78 53 -53 64 -71 84
-134 41 -138 12 -295 -83 -437 -64 -96 -143 -164 -253 -219 -114 -57 -193 -75
-326 -75 -216 0 -401 81 -560 247 -91 94 -199 266 -199 316 0 6 42 -31 94 -81
l93 -92 102 0 c110 0 138 -8 181 -55 95 -102 345 -162 520 -124 65 14 140 64
165 111 29 54 15 72 -60 76 -147 7 -255 115 -271 270 -15 137 65 247 206 286
61 17 120 14 195 -11z m-1977 -301 c7 -5 22 -46 33 -93 59 -252 173 -487 316
-656 24 -29 42 -57 38 -63 -4 -6 -65 -10 -154 -10 l-149 0 -26 35 c-15 19 -48
47 -74 62 -84 50 -204 31 -272 -42 -51 -55 -50 -55 -445 -55 l-365 0 -20 33
c-73 119 -204 560 -222 752 l-3 30 275 5 c501 9 1055 10 1068 2z m3156 -511
c299 -299 318 -321 312 -348 -11 -51 -123 -266 -192 -368 -97 -145 -197 -265
-326 -390 -165 -161 -360 -310 -396 -303 -16 3 -18 45 -24 538 -4 294 -5 546
-2 558 2 13 29 56 58 95 98 131 167 281 202 439 20 95 21 98 36 98 7 0 156
-144 332 -319z m-3237 -363 c31 -29 30 -72 -2 -103 -49 -50 -125 -20 -125 50
0 68 77 101 127 53z m2417 -164 c3 -26 6 -264 6 -529 0 -446 -1 -483 -17 -497
-25 -22 -209 -99 -323 -136 -240 -76 -467 -112 -760 -118 -308 -7 -341 1 -326
79 5 29 16 43 54 68 27 17 59 47 73 67 21 32 24 46 24 129 l0 93 300 301 c167
167 317 309 339 321 22 11 84 31 138 44 150 36 346 126 444 203 15 12 30 21
34 21 4 0 10 -21 14 -46z m-2681 0 c71 -85 93 -104 132 -120 92 -35 193 -2
257 82 46 61 55 62 308 63 241 1 289 -7 398 -62 180 -92 372 -154 549 -178 48
-6 92 -16 98 -20 5 -6 -89 -107 -235 -254 l-244 -244 -56 6 c-132 13 -241 -74
-257 -206 -7 -65 26 -141 81 -183 53 -42 56 -46 56 -87 l0 -34 -58 6 c-32 4
-111 22 -177 41 -599 174 -1127 576 -1458 1108 l-58 93 28 6 c15 4 160 7 321
8 l294 1 21 -26z m1238 -892 c33 -27 30 -78 -5 -109 -49 -42 -110 -20 -122 44
-13 64 73 108 127 65z"/>
</g>
</svg>
