<svg width="671" height="621" viewBox="0 0 671 621" fill="none" xmlns="http://www.w3.org/2000/svg">
<path fill-rule="evenodd" clip-rule="evenodd" d="M357.257 357.25L356.268 358.5L349.134 380.001L342 401.501V402.756V404.01L434.25 403.755L526.5 403.5L534.245 381L541.989 358.5L541.995 357.25L542 356H450.122H358.245L357.257 357.25ZM327.806 443.25L326.23 444.5L319.115 466.001L312 487.501V488.751V490L403.75 489.985L495.5 489.969L496.595 489.235L497.69 488.5L505.35 466.163L513.011 443.827L512.446 442.913L511.882 442H420.632H329.382L327.806 443.25Z" fill="#0068FF"/>
<path fill-rule="evenodd" clip-rule="evenodd" d="M472.253 1.088L465.753 1.924L455.761 4.05901L445.769 6.194L435.761 9.483L425.753 12.773L417.753 16.559L409.753 20.346L400.759 25.883L391.765 31.421L382.259 39.391L372.753 47.361L364.384 55.93L356.016 64.498L349.592 72.998L343.169 81.498L336.239 95.498L329.309 109.498L317.785 143.998L306.261 178.498L294.38 212.998L282.5 247.498L274.626 270.741L266.753 293.983L221.753 294.006L176.753 294.03L164.753 295.012L152.753 295.994L144.289 297.569L135.824 299.143L122.619 303.488L109.414 307.834L98.384 313.475L87.354 319.117L76.561 326.308L65.768 333.498L55.376 343.498L44.984 353.498L39.259 360.498L33.534 367.498L28.013 375.998L22.492 384.498L18.498 392.498L14.504 400.498L10.974 409.998L7.444 419.498L4.927 429.998L2.41 440.498L1.205 449.636L0 458.774L0.537003 476.636L1.07501 494.498L3.136 503.768L5.19801 513.039L8.285 522.268L11.373 531.498L15.848 540.955L20.322 550.412L26.974 560.455L33.626 570.498L44.189 581.073L54.753 591.648L62.253 596.916L69.753 602.184L79.253 606.959L88.753 611.733L96.677 614.454L104.601 617.175L114.462 619.086L124.324 620.998H136.657H148.991L157.623 619.493L166.256 617.987L176.397 614.545L186.538 611.103L194.645 606.413L202.753 601.723L210.753 595.461L218.753 589.198L222.385 585.348L226.016 581.498L231.458 574.373L236.9 567.248L240.995 559.373L245.09 551.498L249.587 540.498L254.084 529.498L267.271 491.498L280.458 453.498L291.929 420.498L303.399 387.498L307.715 374.998L312.031 362.498L328.192 315.998L344.352 269.498L356.928 233.498L369.505 197.498L379.415 167.643L389.325 137.788L392.839 130.384L396.353 122.98L402.224 114.203L408.095 105.426L416.424 97.444L424.753 89.462L431.933 84.7L439.113 79.937L448.656 75.417L458.198 70.897L467.976 68.27L477.753 65.642L493.253 65.57L508.753 65.498L515.753 66.887L522.753 68.277L531.253 71.221L539.753 74.166L547.253 78.237L554.753 82.308L561.753 87.501L568.753 92.694L576.849 101.163L584.946 109.631L589.129 116.673L593.313 123.716L596.839 132.364L600.365 141.012L602.309 151.041L604.253 161.069V170.902V180.736L602.744 189.389L601.235 198.042L599.105 204.27L596.974 210.498L593.996 216.498L591.017 222.498L586.744 228.498L582.471 234.498L575.112 241.563L567.753 248.628L563.253 251.68L558.753 254.732L552.501 257.88L546.249 261.029L541.274 262.99L536.299 264.951L526.259 266.997L516.22 269.043L452.754 269.096L389.287 269.15L387.389 270.824L385.492 272.498L378.276 294.275L371.06 316.053L371.625 317.525L372.19 318.998H468.012H563.833L569.793 317.468L575.753 315.938L584.769 311.49L593.784 307.042L602.769 301.036L611.753 295.029L619.411 288.264L627.069 281.498L633.605 273.891L640.142 266.284L646.196 256.922L652.251 247.559L656.732 236.943L661.213 226.326L663.701 216.912L666.189 207.498L667.684 198.827L669.18 190.157L669.851 179.776L670.522 169.394L669.313 157.446L668.104 145.498L666.09 136.09L664.076 126.682L660.574 116.59L657.073 106.498L652.761 97.498L648.449 88.498L642.507 79.498L636.566 70.498L632.558 65.466L628.551 60.434L622.652 54.059L616.753 47.685L608.665 40.927L600.577 34.169L592.665 28.984L584.753 23.799L573.753 18.497L562.753 13.195L552.753 9.73L542.753 6.265L531.753 4.131L520.753 1.998L509.753 0.999008L498.753 0L488.753 0.126007L478.753 0.251999L472.253 1.088ZM242.742 364.248L241.427 368.498L231.244 397.998L221.06 427.498L213.26 450.498L205.46 473.498L201.823 483.498L198.186 493.498L192.117 508.736L186.048 523.974L182.401 529.976L178.753 535.979L173.753 541.149L168.753 546.32L162.825 550.174L156.897 554.028L150.325 556.112L143.753 558.197L135.753 558.245L127.753 558.292L121.753 556.555L115.753 554.819L108.893 551.226L102.032 547.634L94.163 540.232L86.294 532.829L81.741 525.98L77.188 519.131L74.102 512.326L71.017 505.521L68.65 496.192L66.284 486.863L65.636 477.639L64.987 468.416L66.2 459.457L67.413 450.498L69.472 442.498L71.531 434.498L76.358 424.173L81.185 413.847L85.948 407.173L90.71 400.498L98.021 392.846L105.332 385.193L112.542 380.222L119.753 375.25L127.753 371.264L135.753 367.279L141.038 365.546L146.323 363.814L155.038 361.976L163.753 360.139L203.905 360.068L244.057 359.998L242.742 364.248Z" fill="#0068FF"/>
</svg>
